<svg width="237" height="56" viewBox="0 0 237 56" fill="none" xmlns="http://www.w3.org/2000/svg">
<path d="M81.36 34.46H90.78V38H76.5V34.76L85.86 20.6H76.5V17.06H90.78V20.3L81.36 34.46ZM110.255 21.38L99.9652 45.86H95.4952L99.0952 37.58L92.4352 21.38H97.1452L101.435 32.99L105.785 21.38H110.255ZM133.159 21.14C135.199 21.14 136.839 21.77 138.079 23.03C139.339 24.27 139.969 26.01 139.969 28.25V38H135.769V28.82C135.769 27.52 135.439 26.53 134.779 25.85C134.119 25.15 133.219 24.8 132.079 24.8C130.939 24.8 130.029 25.15 129.349 25.85C128.689 26.53 128.359 27.52 128.359 28.82V38H124.159V28.82C124.159 27.52 123.829 26.53 123.169 25.85C122.509 25.15 121.609 24.8 120.469 24.8C119.309 24.8 118.389 25.15 117.709 25.85C117.049 26.53 116.719 27.52 116.719 28.82V38H112.519V21.38H116.719V23.39C117.259 22.69 117.949 22.14 118.789 21.74C119.649 21.34 120.589 21.14 121.609 21.14C122.909 21.14 124.069 21.42 125.089 21.98C126.109 22.52 126.899 23.3 127.459 24.32C127.999 23.36 128.779 22.59 129.799 22.01C130.839 21.43 131.959 21.14 133.159 21.14ZM159.405 29.33C159.405 29.93 159.365 30.47 159.285 30.95H147.135C147.235 32.15 147.655 33.09 148.395 33.77C149.135 34.45 150.045 34.79 151.125 34.79C152.685 34.79 153.795 34.12 154.455 32.78H158.985C158.505 34.38 157.585 35.7 156.225 36.74C154.865 37.76 153.195 38.27 151.215 38.27C149.615 38.27 148.175 37.92 146.895 37.22C145.635 36.5 144.645 35.49 143.925 34.19C143.225 32.89 142.875 31.39 142.875 29.69C142.875 27.97 143.225 26.46 143.925 25.16C144.625 23.86 145.605 22.86 146.865 22.16C148.125 21.46 149.575 21.11 151.215 21.11C152.795 21.11 154.205 21.45 155.445 22.13C156.705 22.81 157.675 23.78 158.355 25.04C159.055 26.28 159.405 27.71 159.405 29.33ZM155.055 28.13C155.035 27.05 154.645 26.19 153.885 25.55C153.125 24.89 152.195 24.56 151.095 24.56C150.055 24.56 149.175 24.88 148.455 25.52C147.755 26.14 147.325 27.01 147.165 28.13H155.055ZM168.599 27.5C168.599 25.44 169.059 23.6 169.979 21.98C170.919 20.34 172.189 19.07 173.789 18.17C175.409 17.25 177.219 16.79 179.219 16.79C181.559 16.79 183.609 17.39 185.369 18.59C187.129 19.79 188.359 21.45 189.059 23.57H184.229C183.749 22.57 183.069 21.82 182.189 21.32C181.329 20.82 180.329 20.57 179.189 20.57C177.969 20.57 176.879 20.86 175.919 21.44C174.979 22 174.239 22.8 173.699 23.84C173.179 24.88 172.919 26.1 172.919 27.5C172.919 28.88 173.179 30.1 173.699 31.16C174.239 32.2 174.979 33.01 175.919 33.59C176.879 34.15 177.969 34.43 179.189 34.43C180.329 34.43 181.329 34.18 182.189 33.68C183.069 33.16 183.749 32.4 184.229 31.4H189.059C188.359 33.54 187.129 35.21 185.369 36.41C183.629 37.59 181.579 38.18 179.219 38.18C177.219 38.18 175.409 37.73 173.789 36.83C172.189 35.91 170.919 34.64 169.979 33.02C169.059 31.4 168.599 29.56 168.599 27.5ZM203.446 38L198.826 29.84H196.846V38H192.646V17.06H200.506C202.126 17.06 203.506 17.35 204.646 17.93C205.786 18.49 206.636 19.26 207.196 20.24C207.776 21.2 208.066 22.28 208.066 23.48C208.066 24.86 207.666 26.11 206.866 27.23C206.066 28.33 204.876 29.09 203.296 29.51L208.306 38H203.446ZM196.846 26.69H200.356C201.496 26.69 202.346 26.42 202.906 25.88C203.466 25.32 203.746 24.55 203.746 23.57C203.746 22.61 203.466 21.87 202.906 21.35C202.346 20.81 201.496 20.54 200.356 20.54H196.846V26.69ZM234.695 17.06V38H230.495V24.38L224.885 38H221.705L216.065 24.38V38H211.865V17.06H216.635L223.295 32.63L229.955 17.06H234.695Z" fill="#151D48"/>
<rect width="56" height="56" rx="8" fill="#5D5FEF"/>
<path d="M22.3743 17.6274C21.2422 18.7804 21.2422 20.6463 22.3952 21.7994L24.911 24.3151C27.28 26.6842 27.28 30.5417 24.911 32.9107L20.2988 28.2985C19.1143 27.1139 18.5168 25.5521 18.5168 24.0007C18.5168 22.4493 19.1143 20.8874 20.2988 19.7029L22.3428 17.6588C22.3533 17.6483 22.3638 17.6379 22.3743 17.6274Z" fill="#5D5FEF" stroke="white" stroke-width="2" stroke-miterlimit="10"/>
<path d="M24.3868 23.7899L22.3951 21.7983C21.2421 20.6452 21.2316 18.7898 22.3742 17.6263C23.5063 16.5151 25.3092 16.5361 26.4309 17.6577C26.9969 18.2238 27.2799 18.968 27.2799 19.7018C27.2799 20.4356 26.9969 21.1798 26.4309 21.7459L25.9591 22.2176" fill="#5D5FEF"/>
<path d="M24.3868 23.7899L22.3951 21.7983C21.2421 20.6452 21.2316 18.7898 22.3742 17.6263C23.5063 16.5151 25.3092 16.5361 26.4309 17.6577C26.9969 18.2238 27.2799 18.968 27.2799 19.7018C27.2799 20.4356 26.9969 21.1798 26.4309 21.7459L25.9591 22.2176" stroke="white" stroke-width="2" stroke-miterlimit="10"/>
<path d="M34.2715 38.2246C35.4036 37.0715 35.4036 35.2056 34.2505 34.0526L31.7348 31.5368C29.3657 29.1678 29.3657 25.3102 31.7348 22.9412L36.347 27.5535C37.5315 28.738 38.129 30.2999 38.129 31.8513C38.129 33.4027 37.5315 34.9645 36.347 36.149L34.3029 38.1931C34.282 38.2141 34.2715 38.2246 34.2715 38.2246Z" fill="#5D5FEF" stroke="white" stroke-width="2" stroke-miterlimit="10"/>
<path d="M32.2479 32.0713L34.2396 34.063C35.3926 35.2161 35.4031 37.0715 34.2606 38.235C33.1285 39.3461 31.3255 39.3252 30.2039 38.2036C29.6378 37.6375 29.3548 36.8933 29.3548 36.1595C29.3548 35.4257 29.6378 34.6815 30.2039 34.1154L30.686 33.6332" fill="#5D5FEF"/>
<path d="M32.2479 32.0713L34.2396 34.063C35.3926 35.2161 35.4031 37.0715 34.2606 38.235C33.1285 39.3461 31.3255 39.3252 30.2039 38.2036C29.6378 37.6375 29.3548 36.8933 29.3548 36.1595C29.3548 35.4257 29.6378 34.6815 30.2039 34.1154L30.686 33.6332" stroke="white" stroke-width="2" stroke-miterlimit="10"/>
</svg>
